<svg class="svg-icon" style="width: 1.072265625em; height: 1em;vertical-align: middle;fill: currentColor;overflow: hidden;" viewBox="0 0 1098 1024" version="1.1" xmlns="http://www.w3.org/2000/svg"><path d="M548.571429 0l548.571429 219.428571 0 73.142857-73.142857 0q0 14.857143-11.714286 25.714286t-27.714286 10.857143l-872 0q-16 0-27.714286-10.857143t-11.714286-25.714286l-73.142857 0 0-73.142857zm-402.285714 365.714286l146.285714 0 0 438.857143 73.142857 0 0-438.857143 146.285714 0 0 438.857143 73.142857 0 0-438.857143 146.285714 0 0 438.857143 73.142857 0 0-438.857143 146.285714 0 0 438.857143 33.714286 0q16 0 27.714286 10.857143t11.714286 25.714286l0 36.571429-950.857143 0 0-36.571429q0-14.857143 11.714286-25.714286t27.714286-10.857143l33.714286 0 0-438.857143zm911.428571 548.571429q16 0 27.714286 10.857143t11.714286 25.714286l0 73.142857-1097.142857 0 0-73.142857q0-14.857143 11.714286-25.714286t27.714286-10.857143l1018.285714 0z"  /></svg>
